<?xml version="1.0"?>
<!--Icons from directory ""-->
<svg xmlns="http://www.w3.org/2000/svg" width="98" height="74" viewBox="0 0 98 74"><svg xmlns:xlink="http://www.w3.org/1999/xlink" id="logo" xml:space="preserve" height="74" viewBox="0 0 98.265 74.317" width="98" version="1.1" y="0" x="0px" enable-background="new 0 0 98.265 74.317"><path d="m70.098 32.877c-0.951 1.28-2.524 2.065-4.392 2.152-2.689 0.125-3.996-2.211-4.227-7.18-0.195-4.222 0.7-12.311 0.555-15.448l-0.104-2.241c-0.896 0.041-5.063 17.529-7.315 20.628-0.664 1.004-1.783 1.918-3.164 1.981-3.176 0.147-5.363-3.42-5.619-8.948-0.168-3.625 0.494-10.318 0.141-17.937-0.038-0.824-0.203-1.152-0.352-1.146-2.989 0.139-9.656 20.25-9.976 30.298-0.044 1.463 0.219 3.921 0.578 5.215-3.605-0.244-7.463-0.29-7.631-3.914-0.154-3.324 1.577-10.404 3.644-16.679 1.444-4.371 7.037-19.38 12.939-19.653 6.537-0.304 5.774 11.524 6.294 22.693 0.083 1.791 0.144 3.101 0.375 4.063 6.137-17.803 7.278-23.061 10.939-23.23 2.093-0.098 3.717 2.635 3.887 6.296 0.099 2.129 0.073 6.435 0.195 9.05 0.546 11.768 1.761 11.337 3.233 14z" fill="#E55028"/><path d="m90.098 15.69c-0.048 2.364-6.179 11.961-12.003 11.842-3.201-0.066-4.799-2.139-4.742-4.866 0.049-2.365 1.189-4.745 2.058-6.295-5.588-0.951-6.262-3.551-6.231-5.006 0.059-2.911 2.857-4.384 4.64-4.348 1.419 0.029 1.832 1.202 1.816 1.968-0.019 0.872-0.402 1.921-1.013 3.181 2.754 0.678 7.269 0.732 7.225 2.882-0.04 1.964-3.348 5.211-3.402 7.868-0.02 0.981 0.404 1.536 1.17 1.552 3.057 0.063 6.985-6.848 8.766-10.234 1.267 0.245 1.73 0.73 1.716 1.456z" fill="#E55028"/><path d="m94.032 41.441c-0.035 1.723-4.502 8.716-8.745 8.629-2.334-0.048-3.497-1.558-3.456-3.546 0.035-1.725 0.867-3.457 1.5-4.587-4.072-0.693-4.563-2.588-4.541-3.647 0.043-2.121 2.082-3.194 3.381-3.168 1.033 0.021 1.334 0.876 1.322 1.434-0.013 0.636-0.293 1.399-0.736 2.318 2.006 0.494 5.295 0.533 5.263 2.099-0.029 1.433-2.438 3.797-2.478 5.733-0.016 0.716 0.295 1.12 0.852 1.132 2.228 0.046 5.09-4.99 6.387-7.458 0.925 0.179 1.263 0.532 1.251 1.061z" fill="#F9B43B"/><path d="m94.715 58.909c-0.028 1.357-3.547 6.866-6.89 6.798-1.838-0.038-2.756-1.228-2.723-2.794 0.027-1.356 0.683-2.724 1.181-3.613-3.207-0.545-3.595-2.038-3.577-2.873 0.035-1.671 1.641-2.516 2.664-2.495 0.814 0.017 1.052 0.689 1.043 1.13-0.011 0.499-0.231 1.103-0.582 1.825 1.58 0.39 4.173 0.42 4.147 1.655-0.023 1.127-1.923 2.989-1.954 4.517-0.011 0.562 0.232 0.881 0.673 0.89 1.754 0.036 4.01-3.932 5.031-5.876 0.73 0.142 0.996 0.419 0.987 0.836z" fill="#F9B43B"/><path d="m88.913 25.685c0.041-1.983 2.199-3.441 4.765-3.389 2.612 0.053 4.619 1.308 4.587 2.902-0.053 2.565-2.671 5.125-5.283 5.072-2.614-0.053-4.1-3.085-4.069-4.585z" fill="#8BC334"/><path d="m50.903 68.48c0.025-1.241 1.375-2.152 2.979-2.119 1.633 0.033 2.889 0.817 2.867 1.814-0.032 1.604-1.669 3.204-3.303 3.171s-2.562-1.928-2.543-2.866z" fill="#F9B43B"/><path d="m30.218 46.802c0.025-1.241 1.375-2.152 2.979-2.119 1.633 0.033 2.888 0.817 2.868 1.815-0.033 1.603-1.669 3.203-3.303 3.17-1.635-0.033-2.564-1.929-2.544-2.866z" fill="#E55028"/><g fill="#F9B43B"><path d="m60.528 55.991c-0.062 2.992-2.562 6.684-8.605 6.56-3.441-0.07-5.892-1.707-5.856-3.444 0.011-0.508 0.35-0.98 0.894-1.297 0.917 0.556 2.042 1.148 4.197 1.192 3.381 0.069 4.955-2.262 5.003-4.596 0.046-2.273-1.325-3.92-3.36-4.021-1.734-0.036-3.321-0.037-4.502 0.626-0.981-0.349-1.446-1.047-1.432-1.705 0.026-1.257 1.053-1.744 2.37-1.718 0.568 0.012 1.166 0.113 1.759 0.275 2.111-0.735 5.241-3.005 5.307-6.237 0.057-2.751-2.271-4.477-6.131-4.556-0.809-0.017-1.648 0.057-2.519 0.158 0.202 0.334 0.315 0.666 0.309 0.994-3.89 7.224-4.585 22.177-1.9 26.931-0.398 0.441-2.318 0.642-3.185 0.624-2.154-0.044-3.536-1.33-3.762-3.43-0.854-6.542 1.331-16.736 3.201-21.785 0.256-0.804 0.539-1.456 0.85-2.049-1.419 0.599-2.662 1.383-3.578 2.23-0.982-0.288-1.657-0.932-1.645-1.56 0.004-0.209 0.068-0.388 0.191-0.596 0.683-1.152 5.832-4.1 12.624-3.961 8.826 0.182 11.26 4.183 11.205 6.815-0.078 3.799-4.174 6.471-7.244 7.335 3.901 0.981 5.872 4.194 5.809 7.215z"/><path d="m84.269 41.924c-0.025 1.235-4.68 9.245-9.137 9.153-1.82-0.037-2.973-1.038-3.353-3.129-1.301 1.568-3.056 3.028-5.007 2.988-2.277-0.047-3.387-1.501-3.33-4.234 0.022-1.104 0.296-3.312 0.342-5.557 0.03-1.461-0.02-2.214-0.226-3.291 0.946-0.143 1.86-0.287 2.771-0.269 1.593 0.032 2.261 0.827 2.224 2.648-0.021 1.074-0.368 3.67-0.404 5.46-0.025 1.236 0.191 1.727 0.549 1.734 0.488 0.01 1.775-0.809 3.018-2.703 0.126-1.397 0.319-2.857 0.345-4.094 0.024-1.171-0.056-2.052-0.241-2.574 0.557-0.088 1.207-0.172 1.794-0.159 2.082 0.042 3.003 1.134 2.95 3.704-0.018 0.846-0.453 3.083-0.485 4.645-0.03 1.496 0.149 2.216 0.735 2.228 1.105 0.022 4.277-3.882 5.82-7.722 0.785-0.213 1.656 0.163 1.635 1.172z"/><path d="m77.202 60.895c-2.256 0.077-4.504 0.913-6.465 2.147l-0.014 0.711c-0.08 3.894-1.665 10.649-5.854 10.563-1.74-0.035-2.698-1.084-2.661-2.897 0.058-2.818 2.301-5.81 5.189-8.077 0.003-0.172 0.007-0.319-0.016-0.444-0.851 0.867-1.79 1.288-2.795 1.268-1.666-0.034-2.599-1.181-2.559-3.115 0.06-2.941 3.23-5.743 6.269-5.681 1.004 0.021 1.999 0.435 1.982 1.243-0.012 0.612-0.657 0.99-1.986 1.305-0.164-0.418-0.381-0.595-0.601-0.599-1.054-0.021-2.375 2.279-2.407 3.847-0.014 0.687 0.176 0.959 0.471 0.965 0.637 0.014 1.696-1.46 1.355-2.789 1.193-0.761 1.511-0.754 1.976-0.745 1.03 0.021 1.481 0.717 1.613 2.632 1.906-0.965 3.879-1.538 5.545-1.504 0.614 0.011 1.146 0.389 0.958 1.17zm-9.982 5.163c-1.606 1.877-2.631 4.014-2.671 5.999-0.011 0.515 0.104 0.858 0.399 0.864 1.126 0.023 1.966-3.881 2.272-6.863z"/><path d="m87.722 60.522c-0.023 1.176-4.121 7.342-8.676 7.248-3.455-0.07-5.904-2.522-5.836-5.879 0.066-3.234 2.178-5.763 4.822-5.709 1.887 0.039 2.989 1.262 2.948 3.271-0.044 2.156-1.718 3.715-3.185 4.688 0.475 0.794 1.151 1.25 1.984 1.267 1.886 0.039 4.408-2.263 6.316-5.679 0.988-0.298 1.644-0.016 1.627 0.793zm-10.666 0.321c-0.01 0.467 0.005 0.907 0.07 1.301 0.775-0.794 1.383-1.712 1.406-2.839 0.011-0.539-0.177-0.91-0.398-0.915-0.465-0.01-1.053 1.204-1.078 2.453z"/></g><polygon points="0.004 29.345 0.002 29.345 0 29.35" fill="#E55028" clip-rule="evenodd" fill-rule="evenodd"/><g clip-rule="evenodd" fill-rule="evenodd">	<path fill="#E55028" d="m16.591 51.478c0.337-0.337 0.674-0.673 1.104-1.103 0.116 0.836-0.023 1.49-0.405 2.104-0.055 0.118-0.111 0.234-0.164 0.351-0.107 0.34-0.333 0.576-0.631 0.754-0.067 0.046-0.136 0.094-0.205 0.141-0.119 0.075-0.241 0.148-0.361 0.222-0.079 0.021-0.158 0.038-0.237 0.057 0.008 0.119 0.015 0.239 0.023 0.359 1.227 0.24 2.442 0.3 3.628-0.206 1.134-0.483 1.828-1.463 2.63-2.317 0.106-0.254 0.296-0.423 0.524-0.562 0.157-0.273 0.365-0.497 0.646-0.646 0.177-0.271 0.427-0.451 0.722-0.569 0.478-0.575 1.177-0.62 1.832-0.776-0.083-0.703-0.898-0.643-1.186-1.135-1.96-1.289-3.993-2.394-6.42-2.469-0.127 0.037-0.252 0.076-0.38 0.114-0.26 0.09-0.516 0.183-0.776 0.264-2.304 0.732-4.358 2.038-6.617 2.875-1.697 0.631-3.445 0.862-5.247 0.731-0.536-0.04-1.04-0.441-1.604-0.149 0.951 1.728 2.491 2.779 4.218 3.572 1.992 0.916 4.024 0.583 6.045 0.054 0.499-0.235 0.998-0.472 1.496-0.706 0.455-0.321 0.91-0.642 1.365-0.96z"/>	<path fill="#F9B43B" d="m32.426 58.221c-1.174-0.394-2.376-0.705-3.583-0.242-1.696 0.652-3.396 1.288-5.128 1.84-1.39 0.442-2.796 0.794-4.283 0.647-0.32-0.032-0.71-0.216-1.011 0.236 2.812 1.149 5.504 2.677 8.71 1.845 0.903-0.364 1.808-0.727 2.711-1.091 0.066-0.042 0.133-0.082 0.199-0.122 1.264-0.631 2.45-1.41 3.77-1.928-0.087-0.833-0.893-0.829-1.385-1.185z"/>	<path fill="#F9B43B" d="m22.016 35.08c-0.822-0.457-1.882-0.436-2.76-0.384-1.202 0.067-2.362 0.073-3.533-0.165-0.092-0.045-0.183-0.089-0.273-0.132 0.328 0.908 0.994 1.563 1.633 2.256 0.411 0.444 0.821 0.54 1.39 0.581 1.492 0.108 2.934-0.383 4.417-0.295 0.226 0.058 0.453 0.114 0.678 0.173-0.319-0.834-0.798-1.616-1.552-2.034z"/>	<path fill="#E55028" d="m38.82 70.154c-1.171-0.494-2.296-0.518-3.313 0.302-0.573 0.464-1.194 0.786-1.997 1.032 1.17 0.57 2.313 0.802 3.478 0.628 0.804-0.116 1.623-0.376 2.042-1.234 0.163-0.338 0.24-0.539-0.21-0.728z"/></g></svg></svg>
